<svg version="1.1" viewBox="0 0 96 96" xmlns="http://www.w3.org/2000/svg" xmlns:xlink="http://www.w3.org/1999/xlink" id="Icons_Playbook" overflow="hidden"><style>
.MsftOfcThm_Background1_Fill {
 fill:#FFFFFF; 
}
</style>
<path d=" M 76 76 L 26 76 L 26 20 L 76 20 L 76 76 Z M 20 14 L 20 20 L 18.7 20 C 17.1 20.1 16 21.4 16 23 C 15.9 24.6 17.1 25.9 18.7 26 L 20 26 L 20 30 L 18.7 30 C 17 30 15.7 31.3 15.7 33 C 15.7 34.7 17 36 18.7 36 L 20 36 L 20 40 L 18.7 40 C 17 40 15.7 41.3 15.7 43 C 15.7 44.7 17 46 18.7 46 L 20 46 L 20 50 L 18.7 50 C 17 50 15.7 51.3 15.7 53 C 15.7 54.7 17 56 18.7 56 L 20 56 L 20 60 L 18.7 60 C 17 60 15.7 61.3 15.7 63 C 15.7 64.7 17 66 18.7 66 L 20 66 L 20 70 L 18.7 70 C 17 70 15.7 71.3 15.7 73 C 15.7 74.7 17 76 18.7 76 L 20 76 L 20 82 L 82 82 L 82 14 L 20 14 Z" stroke="none" stroke-width="1" stroke-linecap="butt" fill="#FFFFFF" fill-opacity="1"/><path d=" M 40 58 C 42.2 58 44 59.8 44 62 C 44 64.2 42.2 66 40 66 C 37.8 66 36 64.2 36 62 C 36 59.8 37.8 58 40 58 Z M 40 70 C 44 70 47.4 67 47.9 63 C 48.4 59 45.9 55.3 42 54.3 L 42 52 C 42 50.9 42.9 50 44 50 L 58 50 C 61.3 50 64 47.3 64 44 L 64 32.8 L 66.6 35.4 C 67.4 36.2 68.6 36.2 69.4 35.4 C 70.2 34.6 70.2 33.4 69.4 32.6 L 63.4 26.6 C 63 26.2 62.5 26 62 26 C 61.5 26 61 26.2 60.6 26.6 L 54.6 32.6 C 53.8 33.4 53.8 34.6 54.6 35.4 C 55.4 36.2 56.6 36.2 57.4 35.4 L 60 32.8 L 60 44 C 60 45.1 59.1 46 58 46 L 44 46 C 40.7 46 38 48.7 38 52 L 38 54.3 C 34.1 55.3 31.6 59.1 32.1 63 C 32.6 67 36 70 40 70 Z" stroke="none" stroke-width="1" stroke-linecap="butt" fill="#FFFFFF" fill-opacity="1"/><path d=" M 69.4 54.6 C 69 54.2 68.5 54 68 54 C 67.5 54 67 54.2 66.6 54.6 L 62 59.2 L 57.4 54.6 C 56.6 53.8 55.4 53.8 54.6 54.6 C 53.8 55.4 53.8 56.6 54.6 57.4 L 59.2 62 L 54.6 66.6 C 53.8 67.4 53.8 68.6 54.6 69.4 C 55.4 70.2 56.6 70.2 57.4 69.4 L 62 64.8 L 66.6 69.4 C 67.4 70.2 68.6 70.2 69.4 69.4 C 70.2 68.6 70.2 67.4 69.4 66.6 L 64.8 62 L 69.4 57.4 C 70.2 56.6 70.2 55.4 69.4 54.6 Z" stroke="none" stroke-width="1" stroke-linecap="butt" fill="#FFFFFF" fill-opacity="1"/><path d=" M 32.6 41.4 C 33 41.8 33.5 42 34 42 C 34.5 42 35 41.8 35.4 41.4 L 40 36.8 L 44.6 41.4 C 45.4 42.2 46.6 42.2 47.4 41.4 C 48.2 40.6 48.2 39.4 47.4 38.6 L 42.8 34 L 47.4 29.4 C 48.2 28.6 48.2 27.4 47.4 26.6 C 46.6 25.8 45.4 25.8 44.6 26.6 L 40 31.2 L 35.4 26.6 C 34.6 25.8 33.4 25.8 32.6 26.6 C 31.8 27.4 31.8 28.6 32.6 29.4 L 37.2 34 L 32.6 38.6 C 31.8 39.4 31.8 40.6 32.6 41.4 Z" stroke="none" stroke-width="1" stroke-linecap="butt" fill="#FFFFFF" fill-opacity="1"/></svg>