<svg version="1.1" viewBox="0 0 512 512" xmlns="http://www.w3.org/2000/svg" xmlns:xlink="http://www.w3.org/1999/xlink" id="Layer_1" overflow="hidden"><style>
.MsftOfcThm_Background1_Fill {
 fill:#FFFFFF; 
}
</style>
<g><g><path d=" M 484.018 170.463 L 468.034 146.924 C 466.459 144.606 463.817 143.247 461.012 143.321 L 430.027 144.132 C 427.355 144.202 424.884 145.565 423.4 147.787 L 420.245 152.512 L 388.1 173.085 C 385.965 174.452 384.579 176.726 384.343 179.25 L 383.645 186.727 L 371.171 186.727 L 346.64 166.741 C 344.668 165.135 342.062 164.532 339.589 165.104 C 337.111 165.678 335.039 167.364 333.973 169.673 L 323.76 191.8 L 226.029 150.078 L 231.635 128.705 C 232.728 124.536 230.421 120.231 226.343 118.834 L 218.231 116.054 L 204.875 95.633 L 206.788 95.165 C 209.295 94.551 211.368 92.797 212.387 90.426 C 213.408 88.055 213.257 85.344 211.979 83.101 L 207.367 75.006 L 225.017 38.774 C 226.884 34.942 225.515 30.319 221.864 28.122 L 206.001 18.572 C 204.594 17.725 202.972 17.314 201.322 17.405 L 167.468 19.195 L 125.259 0.692 C 122.823 -0.376 120.015 -0.201 117.729 1.168 L 94.983 14.785 C 92.726 16.135 91.252 18.484 91.015 21.104 C 90.778 23.724 91.808 26.297 93.785 28.032 L 106.468 39.15 L 107.168 67.335 C 107.217 69.325 107.987 71.229 109.333 72.696 L 130.178 95.395 L 112.893 126.554 C 112.24 127.73 111.887 129.046 111.862 130.391 L 111.797 133.815 L 81.41 167.211 L 66.001 162.275 C 61.734 160.908 57.152 163.211 55.704 167.455 L 47.221 192.334 C 46.081 195.678 47.202 199.377 50.008 201.524 L 54.378 204.868 L 65.5 227.631 L 65.583 232.592 L 32.011 244.626 C 28.899 245.742 26.758 248.611 26.573 251.913 C 26.389 255.215 28.199 258.305 31.167 259.76 L 41.439 264.792 C 39.965 265.84 38.861 267.355 38.329 269.119 C 37.615 271.48 37.998 274.038 39.373 276.086 L 51.918 294.77 C 52.719 295.964 53.819 296.927 55.108 297.562 L 75.459 307.601 C 78.99 309.342 83.254 308.34 85.64 305.213 L 94.607 293.46 L 99.436 304.903 L 96.539 320.138 C 96.259 321.608 96.387 323.126 96.905 324.529 L 164.28 506.632 C 165.46 509.821 168.594 512.004 171.996 512.004 C 172.99 512.004 173.985 511.824 174.932 511.462 L 191.427 505.162 C 193.33 504.435 194.897 503.027 195.823 501.211 L 199.443 494.107 L 205.068 487.238 L 219.202 470.287 C 220.118 469.188 220.732 467.868 220.982 466.459 L 228.438 424.53 C 228.678 423.184 228.578 421.8 228.147 420.502 L 224.209 408.619 L 231.714 385.934 L 237.987 382.067 L 245.832 381.141 C 248.098 380.873 250.152 379.678 251.501 377.837 L 261.226 364.581 C 264.51 363.21 268.371 362.158 271.013 359.698 C 274.134 356.792 277.062 353.647 280.076 350.631 C 282.486 348.221 284.815 346.198 286.171 343.013 C 287.694 339.439 289.153 335.836 290.643 332.248 L 319.9 316.17 C 322.215 314.897 323.778 312.592 324.103 309.97 L 325.535 298.401 L 336.476 290.032 L 351.155 292.956 C 353.946 293.511 356.833 292.583 358.777 290.5 C 360.721 288.417 361.449 285.475 360.7 282.726 L 346.713 231.35 L 363.882 224.233 L 375.674 231.938 C 376.757 232.646 377.991 233.088 379.277 233.229 L 387.989 234.186 L 378.227 248.62 C 376.481 251.202 376.342 254.548 377.872 257.264 C 379.4 259.98 382.312 261.606 385.445 261.447 L 391.881 261.131 L 406.755 281.451 C 408.716 284.131 412.095 285.371 415.327 284.588 C 418.555 283.808 420.998 281.161 421.52 277.881 L 425.571 252.363 L 432.48 253.687 C 434.665 254.103 436.931 253.621 438.754 252.341 C 440.576 251.062 441.803 249.099 442.154 246.9 L 446.625 218.833 L 450.598 213.591 C 451.458 212.456 452.009 211.117 452.196 209.705 L 452.866 204.662 L 477.069 196.252 C 479.791 195.306 481.819 193.006 482.417 190.187 L 485.256 176.792 C 485.724 174.6 485.276 172.315 484.018 170.463 Z M 467.286 182.233 L 442.68 190.782 C 439.744 191.802 437.634 194.389 437.225 197.469 L 436.173 205.383 L 432.268 210.534 C 431.452 211.611 430.913 212.874 430.7 214.21 L 427.24 235.927 L 420.327 234.602 C 418.141 234.185 415.875 234.668 414.052 235.949 C 412.229 237.229 411.002 239.193 410.652 241.393 L 408.366 255.79 L 402.543 247.836 C 401.88 246.931 401.052 246.185 400.116 245.628 L 409.263 232.104 C 410.879 229.716 411.126 226.656 409.916 224.039 C 408.705 221.422 406.213 219.63 403.347 219.315 L 383.03 217.085 L 369.249 208.08 C 366.974 206.592 364.11 206.326 361.597 207.367 L 333.723 218.922 C 329.899 220.507 327.848 224.688 328.936 228.683 L 341.333 274.22 L 336.042 273.167 C 333.725 272.704 331.315 273.263 329.437 274.701 L 312.798 287.429 C 311.043 288.771 309.902 290.762 309.631 292.953 L 308.292 303.774 L 280.194 319.215 C 278.557 320.115 277.276 321.544 276.56 323.268 L 271.152 336.285 L 260.309 347.132 L 252.781 350.273 C 251.4 350.849 250.201 351.792 249.317 352.999 L 240.355 365.215 L 234.257 365.935 C 233.068 366.075 231.923 366.474 230.903 367.102 L 220.531 373.496 C 218.882 374.512 217.645 376.077 217.037 377.916 L 207.736 406.034 C 207.18 407.714 207.18 409.528 207.737 411.206 L 211.876 423.696 L 205.168 461.424 L 192.389 476.752 L 186.155 484.363 C 185.781 484.819 185.457 485.315 185.19 485.841 L 182.605 490.915 L 176.834 493.119 L 113.138 320.959 L 116.072 305.528 C 116.375 303.934 116.199 302.286 115.57 300.792 L 108.854 284.881 L 109.241 271.738 C 109.346 268.166 107.133 264.934 103.765 263.741 C 100.395 262.545 96.642 263.666 94.476 266.507 L 76.67 289.846 L 64.361 283.773 L 58.739 274.227 L 63.384 271.797 C 66.132 270.36 67.839 267.499 67.796 264.398 C 67.755 261.297 65.974 258.483 63.19 257.118 L 59.3 255.212 L 55.893 253.542 L 76.688 246.088 C 80.004 244.899 82.196 241.73 82.138 238.206 L 81.927 225.523 C 81.906 224.317 81.622 223.13 81.092 222.048 L 68.314 195.897 C 67.753 194.751 66.935 193.749 65.921 192.975 L 64.707 192.046 L 68.675 180.408 L 81.43 184.494 C 84.497 185.476 87.857 184.58 90.025 182.196 L 126.055 142.6 C 127.399 141.125 128.159 139.211 128.196 137.217 L 128.279 132.747 L 147.449 98.191 C 149.167 95.093 148.709 91.244 146.315 88.635 L 123.545 63.84 L 122.833 35.136 C 122.775 32.838 121.759 30.669 120.031 29.153 L 113.129 23.102 L 122.542 17.466 L 162.65 35.05 C 163.826 35.566 165.103 35.797 166.389 35.731 L 199.677 33.97 L 206.929 38.336 L 190.676 71.703 C 189.486 74.146 189.579 77.018 190.924 79.379 L 192.289 81.775 L 189.671 82.416 C 187.079 83.051 184.954 84.905 183.975 87.389 C 182.994 89.873 183.282 92.678 184.743 94.911 L 206.01 127.424 C 207.012 128.956 208.497 130.111 210.229 130.704 L 213.782 131.922 L 208.315 152.768 C 207.281 156.713 209.292 160.821 213.044 162.423 L 324.655 210.07 C 328.749 211.821 333.491 209.992 335.355 205.951 L 344.473 186.196 L 363.052 201.331 C 364.52 202.527 366.356 203.181 368.248 203.181 L 391.143 203.181 C 395.391 203.181 398.939 199.948 399.335 195.718 L 400.356 184.778 L 430.568 165.442 C 431.525 164.83 432.344 164.026 432.975 163.082 L 434.719 160.47 L 456.95 159.887 L 468.44 176.807 L 467.286 182.233 Z" stroke="none" stroke-width="1" stroke-linecap="butt" fill="#FFFFFF" fill-opacity="1"/></g></g><g></g><g></g><g></g><g></g><g></g><g></g><g></g><g></g><g></g><g></g><g></g><g></g><g></g><g></g><g></g></svg>