<svg version="1.1" viewBox="0 0 96 96" xmlns="http://www.w3.org/2000/svg" xmlns:xlink="http://www.w3.org/1999/xlink" id="Icons_Label" overflow="hidden"><style>
.MsftOfcThm_Background1_Fill {
 fill:#FFFFFF; 
}
</style>
<path d=" M 50.4 69.4 L 47.6 66.6 L 66.6 47.6 L 69.4 50.4 L 50.4 69.4 Z M 40.6 59.6 L 59.6 40.6 L 62.4 43.4 L 43.4 62.4 L 40.6 59.6 Z M 33.6 52.6 L 52.6 33.6 L 55.4 36.4 L 36.4 55.4 L 33.6 52.6 Z M 28 32 C 25.8 32 24 30.2 24 28 C 24 25.8 25.8 24 28 24 C 30.2 24 32 25.8 32 28 C 32 30.2 30.2 32 28 32 Z M 77.2 49.2 L 49.2 21.2 C 48.4 20.4 47.4 20 46.4 20 L 28 20 C 23.6 20 20 23.6 20 28 L 20 46.3 C 20 47.4 20.4 48.4 21.2 49.1 L 49.2 77.1 C 50.8 78.7 53.3 78.7 54.9 77.1 L 77.2 54.8 C 78.7 53.3 78.7 50.7 77.2 49.2 Z" stroke="none" stroke-width="1" stroke-linecap="butt" fill="#FFFFFF" fill-opacity="1"/></svg>